<svg width="39" height="40" viewBox="0 0 39 40" fill="none" xmlns="http://www.w3.org/2000/svg">
<path d="M19.6004 0.932495C25.4921 0.932496 30.7649 3.58143 34.2936 7.75301C34.6728 8.20137 34.5344 8.87526 34.0258 9.16889L26.3997 13.5719C26.0181 13.7922 25.5397 13.7256 25.2012 13.4434C23.6835 12.1781 21.731 11.4167 19.6004 11.4167C14.7665 11.4167 10.8477 15.3352 10.8477 20.1692C10.8477 25.0031 14.7665 28.9219 19.6004 28.9219C21.731 28.9219 23.6833 28.1603 25.201 26.8949C25.5394 26.6127 26.0178 26.5461 26.3994 26.7664L34.0258 31.1694C34.5344 31.4631 34.6728 32.1369 34.2936 32.5853C30.7649 36.7569 25.4922 39.4058 19.6004 39.4058C8.97632 39.4058 0.36377 30.7933 0.36377 20.1692C0.363826 9.54509 8.97635 0.932495 19.6004 0.932495Z" fill="white"/>
<path d="M36.3549 13.2028C36.8636 12.9091 37.5166 13.1263 37.7147 13.6793C38.4413 15.7068 38.8371 17.8917 38.8371 20.1692C38.8371 22.4464 38.4412 24.6313 37.7147 26.6587C37.5166 27.2117 36.8636 27.4289 36.3549 27.1352L28.7209 22.7278C28.3406 22.5082 28.1589 22.0629 28.2317 21.6298C28.3116 21.1548 28.3532 20.6668 28.3532 20.1692C28.3532 19.6714 28.3116 19.1833 28.2317 18.7083C28.159 18.2752 28.3406 17.8298 28.721 17.6102L36.3549 13.2028Z" fill="white"/>
</svg> 