<svg width="201" height="42" viewBox="0 0 201 42" fill="none" xmlns="http://www.w3.org/2000/svg">
<path d="M184.878 41.304H178.524V11.4686H184.878V13.5727C185.327 12.8994 186.07 12.3102 187.108 11.8053C188.146 11.2722 189.31 11.0057 190.601 11.0057C193.322 11.0057 195.623 12.0858 197.502 14.246C199.41 16.4061 200.364 18.9871 200.364 21.9889C200.364 24.9906 199.41 27.5716 197.502 29.7317C195.623 31.8919 193.322 32.972 190.601 32.972C189.31 32.972 188.146 32.7195 187.108 32.2145C186.07 31.6815 185.327 31.0783 184.878 30.405V41.304ZM185.677 25.7341C186.575 26.7159 187.739 27.2069 189.17 27.2069C190.601 27.2069 191.751 26.7159 192.621 25.7341C193.519 24.7522 193.967 23.5038 193.967 21.9889C193.967 20.4739 193.519 19.2255 192.621 18.2437C191.751 17.2618 190.601 16.7708 189.17 16.7708C187.739 16.7708 186.575 17.2618 185.677 18.2437C184.808 19.2255 184.373 20.4739 184.373 21.9889C184.373 23.5038 184.808 24.7522 185.677 25.7341Z" fill="white"/>
<path d="M162.901 32.972C160.18 32.972 157.866 31.8919 155.958 29.7317C154.078 27.5716 153.138 24.9906 153.138 21.9889C153.138 18.9871 154.078 16.4061 155.958 14.246C157.866 12.0858 160.18 11.0057 162.901 11.0057C165.314 11.0057 167.222 11.8614 168.624 13.5727V11.4686H174.978V32.5091H168.624V30.405C167.222 32.1163 165.314 32.972 162.901 32.972ZM160.839 25.7341C161.737 26.7159 162.901 27.2069 164.332 27.2069C165.763 27.2069 166.913 26.7159 167.783 25.7341C168.68 24.7522 169.129 23.5038 169.129 21.9889C169.129 20.4739 168.68 19.2255 167.783 18.2437C166.913 17.2618 165.763 16.7708 164.332 16.7708C162.901 16.7708 161.737 17.2618 160.839 18.2437C159.97 19.2255 159.535 20.4739 159.535 21.9889C159.535 23.5038 159.97 24.7522 160.839 25.7341Z" fill="white"/>
<path d="M117.814 32.972C115.093 32.972 112.778 31.8919 110.87 29.7317C108.991 27.5716 108.051 24.9906 108.051 21.9889C108.051 18.9871 108.991 16.4061 110.87 14.246C112.778 12.0858 115.093 11.0057 117.814 11.0057C120.226 11.0057 122.134 11.8614 123.537 13.5727V11.4686H129.891V32.5091H123.537V30.405C122.134 32.1163 120.226 32.972 117.814 32.972ZM115.752 25.7341C116.65 26.7159 117.814 27.2069 119.245 27.2069C120.675 27.2069 121.826 26.7159 122.695 25.7341C123.593 24.7522 124.042 23.5038 124.042 21.9889C124.042 20.4739 123.593 19.2255 122.695 18.2437C121.826 17.2618 120.675 16.7708 119.245 16.7708C117.814 16.7708 116.65 17.2618 115.752 18.2437C114.882 19.2255 114.447 20.4739 114.447 21.9889C114.447 23.5038 114.882 24.7522 115.752 25.7341Z" fill="white"/>
<path d="M93.501 32.5091V11.4687H99.8552V14.6247C100.192 13.6709 100.823 12.8714 101.749 12.2261C102.675 11.5528 103.713 11.2162 104.863 11.2162C105.592 11.2162 106.28 11.3003 106.925 11.4687V17.9071C105.943 17.5704 105.003 17.4021 104.105 17.4021C102.759 17.4021 101.707 17.879 100.949 18.8328C100.22 19.7586 99.8552 20.993 99.8552 22.536V32.5091H93.501Z" fill="white"/>
<path d="M86.3311 8.60713C85.265 8.60713 84.3393 8.2284 83.5538 7.47095C82.7682 6.68544 82.3755 5.74563 82.3755 4.65153C82.3755 3.55742 82.7682 2.63164 83.5538 1.87419C84.3393 1.08868 85.265 0.695923 86.3311 0.695923C87.4532 0.695923 88.3931 1.08868 89.1505 1.87419C89.936 2.63164 90.3288 3.55742 90.3288 4.65153C90.3288 5.74563 89.936 6.68544 89.1505 7.47095C88.3931 8.2284 87.4532 8.60713 86.3311 8.60713ZM83.175 32.5091V11.4686H89.5292V32.5091H83.175Z" fill="white"/>
<path d="M73.5587 32.5091V21.6101C73.5587 18.3839 72.5488 16.7708 70.5289 16.7708C68.1162 16.7708 66.8538 18.5242 66.7416 22.0309V32.5091H60.3874V21.6101C60.3874 18.3839 59.3774 16.7708 57.3576 16.7708C56.1793 16.7708 55.2535 17.2337 54.5802 18.1595C53.9069 19.0572 53.5703 20.4319 53.5703 22.2834V32.5091H47.2161V11.4686H53.5703V13.6148C54.9169 11.8754 56.7123 11.0057 58.9566 11.0057C61.9023 11.0057 64.0625 12.2401 65.4371 14.7089C66.0543 13.5025 66.9801 12.5908 68.2144 11.9736C69.4488 11.3284 70.6832 11.0057 71.9176 11.0057C74.4705 11.0057 76.4342 11.8474 77.8089 13.5306C79.2116 15.2138 79.9129 17.5423 79.9129 20.516V32.5091H73.5587Z" fill="white"/>
<path d="M19.6004 1.9325C25.4921 1.9325 30.7649 4.58143 34.2936 8.75301C34.6728 9.20137 34.5344 9.87526 34.0258 10.1689L26.3997 14.5719C26.0181 14.7922 25.5397 14.7256 25.2012 14.4434C23.6835 13.1781 21.731 12.4167 19.6004 12.4167C14.7665 12.4167 10.8477 16.3352 10.8477 21.1692C10.8477 26.0031 14.7665 29.9219 19.6004 29.9219C21.731 29.9219 23.6833 29.1603 25.201 27.8949C25.5394 27.6127 26.0178 27.5461 26.3994 27.7664L34.0258 32.1694C34.5344 32.4631 34.6728 33.1369 34.2936 33.5853C30.7649 37.7569 25.4922 40.4058 19.6004 40.4058C8.97632 40.4058 0.36377 31.7933 0.36377 21.1692C0.363826 10.5451 8.97635 1.9325 19.6004 1.9325Z" fill="white"/>
<path d="M36.3549 14.2028C36.8636 13.9091 37.5166 14.1263 37.7147 14.6793C38.4413 16.7068 38.8371 18.8917 38.8371 21.1692C38.8371 23.4464 38.4412 25.6313 37.7147 27.6587C37.5166 28.2117 36.8636 28.4289 36.3549 28.1352L28.7209 23.7278C28.3406 23.5082 28.1589 23.0629 28.2317 22.6298C28.3116 22.1548 28.3532 21.6668 28.3532 21.1692C28.3532 20.6714 28.3116 20.1833 28.2317 19.7083C28.159 19.2752 28.3406 18.8298 28.721 18.6102L36.3549 14.2028Z" fill="white"/>
<path d="M143.522 10.8583C146.715 10.8584 149.589 12.2242 151.592 14.4031C151.982 14.8274 151.846 15.4902 151.346 15.7784L147.661 17.9062C147.286 18.1224 146.819 18.0534 146.47 17.7973C145.645 17.1906 144.625 16.832 143.522 16.8319C140.768 16.8319 138.535 19.0649 138.535 21.8192C138.535 24.5736 140.768 26.8065 143.522 26.8065C144.625 26.8064 145.644 26.4477 146.469 25.8411C146.818 25.585 147.286 25.516 147.66 25.7323L151.346 27.8609C151.845 28.1491 151.981 28.812 151.591 29.2362C149.588 31.4146 146.715 32.78 143.522 32.7802C137.468 32.7802 132.561 27.8728 132.561 21.8192C132.561 15.7657 137.468 10.8583 143.522 10.8583Z" fill="white"/>
</svg>
