<svg width="190" height="190" viewBox="0 0 190 190" fill="none" xmlns="http://www.w3.org/2000/svg">
<rect y="0.245361" width="190" height="189.755" rx="94.8773" fill="#1E88E5"/>
<path d="M47.8455 119.546L38.489 124.371L38.2175 124.51V134.261L38.947 133.885L48.3035 129.061L48.575 128.922V119.17L47.8455 119.546ZM36.0173 111.44C34.842 112.15 33.4526 112.752 32.033 113.376C30.6293 113.993 29.1945 114.632 27.9988 115.406L27.9978 115.407C27.9944 115.409 27.9874 115.414 27.9412 115.427C27.931 115.429 27.7628 115.464 27.6326 115.556C27.4412 115.692 27.3677 115.892 27.3533 116.074C27.341 116.229 27.3678 116.403 27.407 116.584L27.4597 116.825L27.6833 116.93L36.2625 120.963L36.5046 121.076L36.7341 120.937C37.9095 120.227 39.2989 119.626 40.7185 119.002C42.1222 118.385 43.556 117.745 44.7517 116.971L44.7537 116.97C44.7571 116.968 44.7643 116.963 44.8103 116.951C44.8219 116.948 44.9883 116.913 45.1179 116.821C45.3095 116.685 45.3828 116.486 45.3972 116.303C45.4095 116.148 45.3837 115.974 45.3445 115.794L45.2917 115.552L45.0681 115.447L36.489 111.415L36.2468 111.302L36.0173 111.44ZM47.8455 63.3962L38.489 68.2214L38.2175 68.3611V78.1121L38.947 77.7361L48.3035 72.9119L48.575 72.7722V63.0203L47.8455 63.3962ZM36.0173 55.2908C34.842 56.0009 33.4526 56.6023 32.033 57.2263C30.6293 57.8433 29.1945 58.483 27.9988 59.2566L27.9978 59.2576C27.9944 59.2598 27.9874 59.2645 27.9412 59.2771C27.931 59.2799 27.7628 59.3147 27.6326 59.407C27.4412 59.5428 27.3677 59.7422 27.3533 59.9246C27.341 60.0797 27.3678 60.2537 27.407 60.4343L27.4597 60.6755L27.6833 60.781L36.2625 64.8132L36.5046 64.9265L36.7341 64.7878C37.9095 64.0778 39.2989 63.4763 40.7185 62.8523C42.1222 62.2353 43.556 61.5956 44.7517 60.822L44.7537 60.821C44.7571 60.8188 44.7643 60.8141 44.8103 60.8015C44.8218 60.7985 44.9883 60.7635 45.1179 60.6716C45.3095 60.5358 45.3828 60.3365 45.3972 60.1541C45.4095 59.999 45.3837 59.8249 45.3445 59.6443L45.2917 59.4031L45.0681 59.2976L36.489 55.2654L36.2468 55.1521L36.0173 55.2908ZM34.5369 124.51L34.2664 124.371L24.9089 119.546L24.1804 119.17V128.922L24.4509 129.061L33.8083 133.885L34.5369 134.261V124.51ZM34.5447 82.3923L34.2722 82.2537L21.3699 75.6746L20.4998 74.7527V59.3699L21.5486 58.3406L36.0437 51.2029L37.3093 51.3904L50.0896 57.7869L50.321 57.9021L50.5496 57.781L60.4968 52.4636L60.9236 52.4089L62.6121 55.7302L52.6599 61.0593L52.4001 61.199L52.3962 61.4939L52.2478 72.988L52.2439 73.2351L52.4382 73.3875L60.49 79.7244L60.9714 80.1023L61.2458 79.5564C65.9379 70.2409 74.242 62.623 84.3435 59.696L84.8259 59.5603C85.6595 59.3326 87.0402 58.9935 88.4099 58.7175C89.7965 58.4381 91.1136 58.2363 91.8513 58.2576C91.9344 58.2603 91.9707 58.2682 91.9832 58.2722C91.982 58.2715 91.9921 58.2768 92.0173 58.3044C92.0206 58.3081 92.0236 58.3122 92.0271 58.3162V61.9285C81.3823 63.0101 71.6594 68.9772 66.2361 78.2351C53.6874 99.6701 67.9126 125.95 92.0271 128.341V131.948C92.0234 131.952 92.0208 131.957 92.0173 131.961C91.9955 131.985 91.9847 131.992 91.9832 131.993C91.9707 131.997 91.9346 132.004 91.8513 132.007C91.1136 132.028 89.7966 131.827 88.4099 131.548C87.3824 131.341 86.3489 131.098 85.5447 130.893L84.8259 130.705C75.1123 128.052 66.777 120.976 62.1013 112.137L61.8601 111.681L61.4119 111.937L52.5662 116.981L52.3113 117.127L52.3142 117.419L52.3962 128.768L52.3982 129.063L52.656 129.204L64.7947 135.832C64.769 135.941 64.7258 136.085 64.6589 136.26C64.5038 136.664 64.2604 137.167 63.9929 137.666C63.7264 138.163 63.4435 138.64 63.2136 138.99C63.1491 139.088 63.0882 139.172 63.0369 139.243L50.7576 132.476L50.5291 132.35L50.2957 132.466L37.3142 138.87L36.0583 139.055C33.7987 137.801 31.2387 136.688 28.738 135.569C26.1679 134.419 23.6571 133.258 21.5251 131.909H21.5242C21.0806 131.629 20.8527 131.353 20.5037 130.923V115.503C20.6498 115.335 20.7812 115.164 20.8855 115.038C21.0346 114.858 21.1719 114.714 21.3464 114.597C23.1883 113.374 25.4333 112.398 27.74 111.382C30.0267 110.374 32.3715 109.326 34.3259 107.969L34.5408 107.82V97.9714H38.2214V107.865L38.4949 108.004L50.0476 113.887L50.2888 114.01L50.5232 113.876L60.0251 108.41L60.4021 108.193L60.24 107.79C57.8099 101.745 57.5631 95.5556 58.4646 89.1697L58.6599 87.8904C58.7243 87.5009 58.9649 86.661 59.1814 85.7839C59.2853 85.3631 59.381 84.9408 59.4343 84.5945C59.4608 84.4225 59.4796 84.2536 59.4802 84.1052C59.4805 84.031 59.4767 83.9498 59.4626 83.8699C59.4494 83.7951 59.4217 83.6859 59.3523 83.5818L59.3054 83.5125L59.24 83.4626L50.2888 76.6208L50.0398 76.4314L49.7605 76.572L38.5007 82.2527L38.2253 82.3914V92.2869H34.5447V82.3923ZM34.5369 68.3611L34.2664 68.2214L24.9089 63.3962L24.1804 63.0203V72.7722L24.4509 72.9119L33.8083 77.7361L34.5369 78.1121V68.3611Z" fill="white" stroke="#1E88E5"/>
<path d="M108.591 144.356L108.818 144.466L109.041 144.349L119.395 138.927L121.108 142.293L111.156 147.622L110.935 147.74L110.897 147.988C110.582 150.072 110.666 152.305 110.766 154.476C110.867 156.667 110.983 158.79 110.758 160.733C110.698 161.253 110.62 161.532 110.35 161.86L95.6274 169.5H94.1108L79.3862 161.859C79.1161 161.531 79.0377 161.25 78.981 160.737L78.98 160.734L78.9419 160.368C78.7697 158.525 78.8777 156.531 78.9722 154.476C79.072 152.305 79.1565 150.072 78.8413 147.988L78.8042 147.744L78.5874 147.625L68.6372 142.165L70.3384 138.928L80.6978 144.353L80.9243 144.471L81.1528 144.357L93.9438 137.952L94.9438 137.749L108.591 144.356ZM106.333 149.963L96.9761 154.788L96.7056 154.927V164.678L97.4351 164.302L106.792 159.478L107.063 159.339V149.587L106.333 149.963ZM94.5093 141.857C93.3338 142.567 91.9437 143.169 90.5239 143.793C89.1204 144.41 87.6864 145.049 86.4907 145.823L86.4888 145.824C86.4852 145.826 86.4769 145.831 86.4321 145.844C86.4179 145.847 86.2529 145.882 86.1245 145.973C85.933 146.109 85.8596 146.309 85.8452 146.491C85.833 146.646 85.8597 146.82 85.8989 147.001L85.9507 147.242L86.1743 147.347L94.7544 151.38L94.9966 151.493L95.2251 151.354C96.4006 150.644 97.7906 150.043 99.2104 149.419C100.614 148.802 102.048 148.162 103.244 147.388L103.246 147.387C103.249 147.385 103.257 147.38 103.302 147.368C103.315 147.365 103.481 147.329 103.61 147.238C103.801 147.102 103.875 146.903 103.889 146.72C103.901 146.565 103.875 146.391 103.835 146.211L103.784 145.969L103.56 145.864L94.98 141.832L94.7378 141.719L94.5093 141.857ZM93.0288 154.927L92.7583 154.788L83.4009 149.963L82.6724 149.587V159.339L82.9429 159.478L92.3003 164.302L93.0288 164.678V154.927Z" fill="white" stroke="#1E88E5"/>
<path d="M164.82 119.545L155.462 124.37L155.192 124.51V134.261L155.921 133.885L165.278 129.061L165.549 128.921V119.169L164.82 119.545ZM152.995 111.439C151.82 112.15 150.43 112.751 149.01 113.375C147.606 113.992 146.172 114.632 144.977 115.405L144.975 115.406C144.971 115.409 144.963 115.414 144.918 115.426C144.904 115.429 144.739 115.465 144.611 115.556C144.419 115.691 144.346 115.891 144.331 116.073C144.319 116.228 144.346 116.402 144.385 116.583L144.437 116.824L144.66 116.93L153.24 120.962L153.483 121.075L153.711 120.937C154.887 120.226 156.277 119.625 157.697 119.001C159.1 118.384 160.534 117.744 161.73 116.971L161.732 116.97C161.735 116.967 161.743 116.963 161.788 116.95C161.802 116.947 161.967 116.912 162.096 116.82C162.288 116.684 162.361 116.485 162.375 116.303C162.387 116.148 162.361 115.974 162.322 115.793L162.27 115.552L162.046 115.446L153.466 111.414L153.224 111.301L152.995 111.439ZM164.82 63.3955L155.462 68.2207L155.192 68.3604V78.1113L155.921 77.7354L165.278 72.9111L165.549 72.7715V63.0195L164.82 63.3955ZM152.995 55.29C151.82 56.0002 150.43 56.6015 149.01 57.2256C147.606 57.8425 146.172 58.4823 144.977 59.2559L144.975 59.2568C144.971 59.2591 144.963 59.2641 144.918 59.2764C144.904 59.2799 144.739 59.3151 144.611 59.4062C144.419 59.5421 144.346 59.7415 144.331 59.9238C144.319 60.0789 144.346 60.2529 144.385 60.4336L144.437 60.6748L144.66 60.7803L153.24 64.8125L153.483 64.9258L153.711 64.7871C154.887 64.0769 156.277 63.4757 157.697 62.8516C159.1 62.2346 160.534 61.5948 161.73 60.8213L161.732 60.8203C161.735 60.818 161.743 60.8131 161.788 60.8008C161.802 60.7973 161.967 60.7622 162.096 60.6709C162.288 60.5351 162.361 60.3357 162.375 60.1533C162.387 59.9982 162.361 59.8242 162.322 59.6436L162.27 59.4023L162.046 59.2969L153.466 55.2646L153.224 55.1514L152.995 55.29ZM151.515 124.51L151.244 124.37L141.887 119.545L141.158 119.169V128.921L141.429 129.061L150.785 133.885L151.515 134.261V124.51ZM151.511 82.3955L151.239 82.2568L139.686 76.373L139.444 76.25L139.209 76.3848L129.707 81.8506L129.337 82.0645L129.49 82.4639C132.575 90.5021 132.579 99.755 129.49 107.801L129.337 108.2L129.707 108.413L139.209 113.879L139.444 114.014L139.686 113.891L151.239 108.007L151.511 107.868V97.9736H155.192V107.783L155.356 107.932C155.925 108.448 157.041 109.059 158.332 109.692C159.645 110.336 161.213 111.038 162.734 111.73C164.261 112.426 165.74 113.11 166.897 113.728C167.476 114.036 167.963 114.322 168.33 114.578C168.62 114.78 168.799 114.94 168.898 115.055L168.97 115.153C169.142 115.456 169.182 115.658 169.213 115.986L169.246 116.366C169.537 119.65 169.61 127.143 169.24 130.318C169.189 130.754 169.117 131.004 169.005 131.197C168.894 131.389 168.718 131.572 168.369 131.824C166.522 133.157 163.989 134.267 161.355 135.396C158.802 136.492 156.156 137.607 154.092 138.949H152.584L139.437 132.473L139.207 132.359L138.981 132.48L126.674 139.055L125.08 135.727L137.075 129.207L137.335 129.066L137.337 128.771L137.419 117.422L137.421 117.134L137.172 116.987L128.601 111.951L128.475 111.878L128.328 111.883L127.91 111.898L127.612 111.91L127.48 112.179C122.492 122.362 111.722 130.094 100.422 131.663L99.884 131.733C99.6667 131.759 99.4049 131.804 99.1604 131.843C98.9059 131.883 98.6532 131.919 98.4163 131.935C98.176 131.951 97.9773 131.944 97.8264 131.912C97.7783 131.902 97.7402 131.889 97.7092 131.877V128.341C119.83 126.165 134.117 103.597 125.678 82.5859C121.056 71.072 109.998 63.1173 97.7092 61.9229V58.3164C97.713 58.3121 97.7164 58.3076 97.72 58.3037C97.7411 58.2806 97.7512 58.2729 97.7532 58.2715C97.7388 58.2805 97.7479 58.2614 97.885 58.2568C98.6226 58.2355 99.9396 58.4374 101.326 58.7168C102.696 58.9928 104.077 59.3319 104.91 59.5596C114.39 62.1481 123.169 69.2832 127.48 78.0859L127.612 78.3545L127.91 78.3652L128.328 78.3809L128.474 78.3867L128.6 78.3125L137.047 73.3623L137.29 73.2197L137.294 72.9375L137.427 61.7051L137.429 61.499L137.286 61.3516L136.567 60.6084L136.51 60.5498L136.437 60.5117L127.126 55.7197L128.82 52.3916C128.853 52.4026 128.892 52.4144 128.934 52.4297C129.208 52.5295 129.587 52.7005 130.048 52.9277C130.967 53.3803 132.159 54.0303 133.39 54.7139C134.615 55.3944 135.88 56.1082 136.929 56.6768C137.454 56.9613 137.93 57.2134 138.324 57.4082C138.708 57.5977 139.047 57.7504 139.283 57.8193L139.471 57.874L139.647 57.7861L152.594 51.3145H154.099C156.162 52.6551 158.809 53.77 161.363 54.8652C163.997 55.9951 166.53 57.1049 168.377 58.4395C168.726 58.6916 168.902 58.8742 169.013 59.0654C169.096 59.21 169.158 59.3859 169.205 59.6494L169.248 59.9453C169.618 63.1207 169.545 70.6177 169.254 73.8975C169.208 74.4097 169.207 74.6448 169.054 74.9658L168.978 75.1104C168.914 75.2214 168.723 75.4153 168.338 75.6836C167.971 75.9396 167.483 76.2254 166.905 76.5342C165.747 77.1513 164.269 77.8368 162.741 78.5322C161.221 79.2246 159.652 79.9273 158.34 80.5713C157.049 81.2049 155.933 81.8153 155.364 82.332L155.199 82.4805V92.29H151.511V82.3955ZM151.515 68.3604L151.244 68.2207L141.887 63.3955L141.158 63.0195V72.7715L141.429 72.9111L150.785 77.7354L151.515 78.1113V68.3604Z" fill="white" stroke="#1E88E5"/>
<path d="M95.7913 20.9719L110.346 28.4055C110.616 28.7342 110.695 29.0147 110.752 29.5286V29.5305C110.977 31.4741 110.862 33.5972 110.761 35.7883C110.661 37.9592 110.576 40.193 110.891 42.2766L110.928 42.5217L111.146 42.6409L123.284 49.2688C123.259 49.3782 123.216 49.5223 123.149 49.6965C122.994 50.1005 122.75 50.6043 122.483 51.1028C122.216 51.5995 121.933 52.0774 121.703 52.427C121.639 52.5249 121.579 52.6088 121.528 52.6799L109.247 45.9133L109.023 45.7893L108.791 45.8997L94.9417 52.5159L93.9417 52.3118L81.1516 45.9075L80.9182 45.7913L80.6897 45.9153L68.3147 52.6243L66.5637 49.2971L78.5911 42.635L78.8069 42.5159L78.843 42.2727C79.1582 40.1891 79.0737 37.9553 78.9739 35.7844C78.8731 33.5936 78.7579 31.471 78.9827 29.5276C79.043 29.011 79.1176 28.7303 79.384 28.4045L94.7942 20.7688L95.7913 20.9719ZM106.331 32.9827L96.9749 37.8079L96.7034 37.9475V47.6985L97.4329 47.3225L106.79 42.4983L107.061 42.3586V32.6067L106.331 32.9827ZM94.5071 24.8772C93.3317 25.5873 91.9424 26.1887 90.5227 26.8127C89.119 27.4297 87.6843 28.0694 86.4885 28.843L86.4875 28.844C86.4842 28.8462 86.4773 28.8509 86.4309 28.8635C86.4208 28.8663 86.2526 28.9011 86.1223 28.9934C85.931 29.1292 85.8574 29.3287 85.843 29.511C85.8308 29.6661 85.8575 29.8401 85.8967 30.0208L85.9495 30.262L86.1731 30.3674L94.7522 34.3997L94.9944 34.5129L95.2239 34.3743C96.3992 33.6642 97.7886 33.0627 99.2083 32.4387C100.612 31.8218 102.046 31.182 103.241 30.4084L103.243 30.4075C103.247 30.4052 103.254 30.4006 103.3 30.3879C103.311 30.3851 103.478 30.3501 103.608 30.2581C103.799 30.1222 103.873 29.9229 103.887 29.7405C103.899 29.5854 103.873 29.4113 103.834 29.2307L103.781 28.9895L103.558 28.884L94.9788 24.8518L94.7366 24.7385L94.5071 24.8772ZM93.0276 37.9475L92.7561 37.8079L83.3997 32.9827L82.6702 32.6067V42.3586L82.9407 42.4983L92.2981 47.3225L93.0276 47.6985V37.9475Z" fill="white" stroke="#1E88E5"/>
<path d="M95.0374 79.2456C95.2487 79.2702 95.4697 79.3345 95.7727 79.4517C96.0797 79.57 96.8988 80.006 98.0168 80.6401C99.1173 81.2642 100.468 82.0575 101.813 82.8657C103.157 83.6739 104.494 84.4957 105.565 85.1763C106.652 85.8671 107.428 86.3891 107.685 86.6089L107.686 86.6099C108.032 86.905 108.172 87.1062 108.25 87.3062C108.316 87.4741 108.35 87.6654 108.382 87.9604L108.414 88.2935C108.724 91.7014 108.724 98.5672 108.414 101.975V101.976C108.37 102.474 108.337 102.74 108.249 102.963C108.17 103.163 108.031 103.364 107.686 103.66C107.429 103.878 106.652 104.4 105.565 105.09C104.493 105.771 103.155 106.593 101.81 107.402C100.464 108.211 99.1131 109.005 98.0129 109.629C96.8948 110.264 96.0768 110.7 95.7727 110.817C95.3677 110.973 95.1056 111.033 94.8655 111.033C94.6251 111.033 94.3608 110.974 93.9514 110.817H93.9524C93.6475 110.7 92.8294 110.265 91.7112 109.63C90.6107 109.006 89.2597 108.212 87.9143 107.403C86.5689 106.594 85.2318 105.772 84.1604 105.091C83.073 104.4 82.2973 103.878 82.0413 103.66H82.0403C81.6939 103.365 81.5544 103.163 81.4758 102.963C81.3878 102.739 81.3562 102.473 81.3118 101.976V101.975L81.2571 101.297C81.0029 97.7228 81.0214 91.4895 81.3118 88.2944C81.3519 87.8612 81.3866 87.5519 81.4827 87.2886C81.569 87.0522 81.7089 86.8435 81.9924 86.645L94.3801 79.2866C94.6453 79.232 94.848 79.2236 95.0374 79.2456ZM94.7463 83.5854L85.4524 88.8208L85.2004 88.9624L85.1975 89.2515L85.0686 100.917L85.0657 101.208L85.3176 101.355L94.4866 106.676L94.7346 106.82L94.9836 106.679L104.278 101.444L104.53 101.302L104.532 101.014L104.661 89.3481L104.664 89.0562L104.412 88.9097L95.2424 83.5894L94.9954 83.4458L94.7463 83.5854Z" fill="white" stroke="#1E88E5"/>
<path d="M76.0989 80.0742C75.6352 80.9613 75.093 81.7891 74.5432 82.6572C74.0031 83.5102 73.46 84.3966 73.0168 85.375L72.8333 85.7998C69.3985 94.1671 70.9045 102.932 76.0608 110.101L73.4241 112.273C65.2524 102.891 65.2307 87.3539 73.4309 77.9805L76.0989 80.0742Z" fill="white" stroke="#1E88E5"/>
<path d="M112.016 116.566C102.628 124.756 87.1351 124.745 77.7239 116.572L79.8967 113.936C87.0622 119.093 95.8308 120.6 104.198 117.165C105.348 116.694 106.365 116.072 107.34 115.455C108.208 114.905 109.037 114.363 109.924 113.899L112.016 116.566Z" fill="white" stroke="#1E88E5"/>
<path d="M77.7249 73.6909C87.1326 65.5193 102.629 65.5084 112.017 73.6978L109.923 76.3647C109.036 75.9012 108.208 75.3596 107.34 74.8101C106.365 74.1928 105.348 73.5704 104.198 73.0991C95.8308 69.6643 87.0657 71.171 79.8967 76.3276L77.7249 73.6909Z" fill="white" stroke="#1E88E5"/>
<path d="M116.306 77.9932C124.486 87.4106 124.479 102.878 116.299 112.285L113.572 110.145C113.605 110.08 113.646 110.003 113.697 109.915C113.886 109.584 114.164 109.153 114.466 108.699C114.768 108.246 115.083 107.786 115.349 107.391C115.605 107.011 115.832 106.667 115.929 106.482C120.498 97.8138 119.33 87.9152 113.672 80.165L116.306 77.9932Z" fill="white" stroke="#1E88E5"/>
</svg>
