<svg width="31" height="30" viewBox="0 0 31 30" fill="none" xmlns="http://www.w3.org/2000/svg">
<rect x="0.5" width="30" height="30" rx="15" fill="white"/>
<path d="M12.2265 3C12.3277 3.15217 13.1596 3.4364 13.1596 3.53833V7.80904C13.3685 7.8356 13.5623 7.74157 13.7668 7.7344C16.8095 7.62529 19.9073 7.82053 22.9557 7.7387C23.2019 7.78607 23.7589 8.5225 23.9929 8.7163L18.0412 14.7362C18.5113 14.7089 18.8723 14.5266 19.3676 14.5575C25.0064 14.9128 26.1153 24.0536 21.1039 26.3404C18.7395 27.4192 14.8873 27.361 13.5515 24.7519C13.0197 23.7126 12.7957 21.8579 14.2499 21.4962C15.9474 21.0741 16.9724 22.613 16.1628 24.055L15.4579 24.7118C16.8461 25.9176 19.4587 25.8473 20.6553 24.3837C22.2229 22.4666 22.1052 17.4551 19.6231 16.2399C17.8926 15.393 16.7592 16.3031 15.2426 16.9965C15.2562 16.7682 15.1866 16.517 15.3079 16.3096L20.6251 9.17352H13.1603V17.3202C13.1603 17.7523 13.6707 18.5102 14.0769 18.7005C15.2383 19.2452 16.1979 18.3674 16.9308 17.5736C17.1152 17.374 17.149 16.9864 17.5402 17.0977C18.5529 17.3855 17.5 18.951 17.0722 19.3651C15.5799 20.8121 12.0435 20.5602 10.9776 18.7141C10.829 18.4564 10.5053 17.7329 10.5053 17.4637V9.17352H6.69971V7.73798C6.7521 7.71861 6.78584 7.80976 6.80737 7.80976H10.5039V4.61498C10.5039 4.54607 9.74878 3.94028 9.67988 3.78811C9.58226 3.57206 9.67055 3.23758 9.64255 3H12.2265Z" fill="#2E7EF6"/>
</svg>
